<svg xmlns="http://www.w3.org/2000/svg" viewBox="0 0 512 512">
  <defs>
    <linearGradient id="grad" x1="0%" y1="0%" x2="100%" y2="100%">
      <stop offset="0%" style="stop-color:#10b981"/>
      <stop offset="100%" style="stop-color:#059669"/>
    </linearGradient>
  </defs>
  <!-- Background Circle -->
  <circle cx="256" cy="256" r="240" fill="url(#grad)"/>
  <!-- Shield Icon -->
  <path d="M256 96c-70 0-140 28-140 28v140c0 84 60 140 140 168 80-28 140-84 140-168V124s-70-28-140-28z" 
        fill="none" 
        stroke="white" 
        stroke-width="24" 
        stroke-linecap="round" 
        stroke-linejoin="round"/>
  <!-- Checkmark -->
  <path d="M200 260l40 40 72-80" 
        fill="none" 
        stroke="white" 
        stroke-width="24" 
        stroke-linecap="round" 
        stroke-linejoin="round"/>
  <!-- Chart bars at bottom -->
  <rect x="176" y="340" width="24" height="40" rx="4" fill="white" opacity="0.9"/>
  <rect x="212" y="320" width="24" height="60" rx="4" fill="white" opacity="0.9"/>
  <rect x="248" y="300" width="24" height="80" rx="4" fill="white" opacity="0.9"/>
  <rect x="284" y="330" width="24" height="50" rx="4" fill="white" opacity="0.9"/>
  <rect x="320" y="310" width="24" height="70" rx="4" fill="white" opacity="0.9"/>
</svg>
